<svg id="svg" version="1.1" xmlns="http://www.w3.org/2000/svg" xmlns:xlink="http://www.w3.org/1999/xlink" width="400" height="400" viewBox="0, 0, 400,400"><g id="svgg"><path id="path0" d="M158.055 125.500 C 143.169 125.603,142.339 125.647,142.848 126.305 C 143.353 126.957,143.336 126.957,142.562 126.300 C 141.222 125.163,141.114 125.309,138.117 132.300 C 136.538 135.985,134.239 141.322,133.009 144.159 L 130.772 149.318 131.686 150.356 C 132.782 151.600,132.129 150.907,137.207 156.208 C 139.521 158.624,144.021 163.381,147.207 166.781 C 154.271 174.317,161.297 181.639,166.507 186.892 L 170.414 190.831 170.307 170.676 L 170.200 150.521 172.143 152.160 L 174.087 153.800 188.343 154.025 C 204.786 154.285,206.821 154.619,214.535 158.324 C 249.332 175.036,249.332 224.564,214.535 241.276 C 206.771 245.005,204.756 245.334,188.622 245.507 C 173.262 245.671,174.167 245.529,171.200 248.244 L 170.200 249.158 170.307 228.957 L 170.415 208.757 166.707 212.523 C 160.542 218.786,153.320 226.304,147.207 232.823 C 144.021 236.220,139.611 240.890,137.406 243.200 C 135.202 245.510,132.803 248.050,132.075 248.844 L 130.752 250.288 132.997 255.444 C 134.231 258.280,136.535 263.615,138.115 267.300 C 141.115 274.291,141.222 274.437,142.562 273.300 C 143.189 272.767,143.269 272.753,142.894 273.240 C 142.357 273.939,192.682 274.782,200.063 274.197 C 271.178 268.567,294.897 177.269,235.600 137.409 C 222.113 128.343,208.874 125.115,185.916 125.295 C 179.252 125.348,166.715 125.440,158.055 125.500 " stroke="none" fill="#6b96c5" fill-rule="evenodd"></path><path id="path1" d="M0.000 200.000 L 0.000 400.000 200.000 400.000 L 400.000 400.000 400.000 200.000 L 400.000 0.000 200.000 0.000 L 0.000 0.000 0.000 200.000 M202.058 125.219 C 253.999 130.473,284.829 185.588,262.171 232.683 C 252.465 252.855,232.026 268.774,210.200 273.158 C 202.872 274.631,198.662 274.800,169.401 274.800 L 140.887 274.800 139.267 271.100 C 138.376 269.065,136.359 264.340,134.784 260.600 C 133.210 256.860,131.557 252.947,131.110 251.905 L 130.298 250.011 137.834 242.105 C 141.978 237.757,148.009 231.410,151.236 228.000 C 154.462 224.590,161.714 216.951,167.351 211.025 C 172.988 205.099,177.600 200.049,177.600 199.803 C 177.600 199.556,172.987 194.505,167.348 188.578 C 161.710 182.650,154.459 175.010,151.235 171.600 C 148.012 168.190,141.983 161.841,137.838 157.490 L 130.301 149.581 131.112 147.690 C 131.558 146.651,133.210 142.740,134.784 139.000 C 136.359 135.260,138.376 130.535,139.267 128.500 L 140.887 124.800 169.401 124.800 C 186.371 124.800,199.592 124.970,202.058 125.219 M175.838 154.885 C 176.784 155.984,180.432 159.864,190.426 170.400 C 194.704 174.910,200.588 181.143,203.502 184.252 L 208.800 189.903 208.800 199.804 L 208.800 209.705 203.303 215.552 C 198.255 220.923,188.081 231.691,179.625 240.613 C 177.741 242.600,175.936 244.556,175.613 244.958 C 174.782 245.996,199.170 245.696,204.000 244.610 C 247.860 234.743,253.360 174.151,211.897 157.612 C 204.082 154.495,200.540 154.008,185.638 154.003 L 175.076 154.000 175.838 154.885 " stroke="none" fill="#04041b" fill-rule="evenodd"></path><path id="path2" d="M159.523 125.499 C 162.231 125.568,166.551 125.568,169.123 125.499 C 171.695 125.429,169.480 125.372,164.200 125.373 C 158.920 125.373,156.815 125.430,159.523 125.499 M170.307 170.749 L 170.415 190.945 167.807 188.192 C 166.373 186.679,165.200 185.643,165.200 185.891 C 165.200 186.139,165.605 186.672,166.100 187.076 C 167.985 188.614,178.069 199.593,177.938 199.965 C 177.862 200.180,174.999 203.290,171.576 206.878 C 168.153 210.465,165.205 213.670,165.024 214.000 C 164.844 214.330,165.983 213.262,167.556 211.627 L 170.415 208.653 170.307 228.865 L 170.200 249.078 171.796 247.839 C 173.747 246.324,177.235 242.778,187.767 231.600 C 192.224 226.870,198.689 220.032,202.135 216.404 L 208.400 209.807 208.400 199.799 L 208.400 189.790 201.746 182.795 C 198.087 178.948,192.912 173.467,190.246 170.617 C 180.952 160.676,174.398 153.973,172.307 152.269 L 170.200 150.553 170.307 170.749 M139.400 158.800 C 140.259 159.680,141.052 160.400,141.162 160.400 C 141.272 160.400,140.659 159.680,139.800 158.800 C 138.941 157.920,138.148 157.200,138.038 157.200 C 137.928 157.200,138.541 157.920,139.400 158.800 M161.000 181.600 C 161.859 182.480,162.652 183.200,162.762 183.200 C 162.872 183.200,162.259 182.480,161.400 181.600 C 160.541 180.720,159.748 180.000,159.638 180.000 C 159.528 180.000,160.141 180.720,161.000 181.600 M269.342 199.800 C 269.341 201.780,269.408 202.640,269.492 201.712 C 269.576 200.784,269.577 199.164,269.495 198.112 C 269.412 197.060,269.343 197.820,269.342 199.800 M161.381 217.700 L 159.800 219.400 161.500 217.819 C 163.081 216.348,163.384 216.000,163.081 216.000 C 163.016 216.000,162.251 216.765,161.381 217.700 M139.775 240.500 L 138.600 241.800 139.900 240.625 C 141.112 239.530,141.384 239.200,141.075 239.200 C 141.006 239.200,140.421 239.785,139.775 240.500 M159.523 274.299 C 162.231 274.368,166.551 274.368,169.123 274.299 C 171.695 274.229,169.480 274.172,164.200 274.173 C 158.920 274.173,156.815 274.230,159.523 274.299 " stroke="none" fill="#8a5ca7" fill-rule="evenodd"></path><path id="path3" d="M144.920 125.498 C 146.855 125.572,149.915 125.571,151.720 125.497 C 153.524 125.423,151.940 125.363,148.200 125.364 C 144.460 125.364,142.984 125.425,144.920 125.498 M135.800 155.200 C 136.883 156.300,137.860 157.200,137.970 157.200 C 138.080 157.200,137.283 156.300,136.200 155.200 C 135.117 154.100,134.140 153.200,134.030 153.200 C 133.920 153.200,134.717 154.100,135.800 155.200 M177.800 157.600 C 178.883 158.700,179.860 159.600,179.970 159.600 C 180.080 159.600,179.283 158.700,178.200 157.600 C 177.117 156.500,176.140 155.600,176.030 155.600 C 175.920 155.600,176.717 156.500,177.800 157.600 M149.600 169.800 C 150.346 170.570,151.047 171.200,151.157 171.200 C 151.267 171.200,150.746 170.570,150.000 169.800 C 149.254 169.030,148.553 168.400,148.443 168.400 C 148.333 168.400,148.854 169.030,149.600 169.800 M192.000 172.600 C 193.195 173.810,194.263 174.800,194.373 174.800 C 194.483 174.800,193.595 173.810,192.400 172.600 C 191.205 171.390,190.137 170.400,190.027 170.400 C 189.917 170.400,190.805 171.390,192.000 172.600 M157.583 178.100 C 158.564 179.145,159.419 180.000,159.483 180.000 C 159.784 180.000,159.466 179.641,157.700 177.983 L 155.800 176.200 157.583 178.100 M198.200 179.200 C 199.059 180.080,199.852 180.800,199.962 180.800 C 200.072 180.800,199.459 180.080,198.600 179.200 C 197.741 178.320,196.948 177.600,196.838 177.600 C 196.728 177.600,197.341 178.320,198.200 179.200 M170.400 191.725 C 170.400 191.794,170.985 192.379,171.700 193.025 L 173.000 194.200 171.825 192.900 C 170.730 191.688,170.400 191.416,170.400 191.725 M240.550 199.800 C 240.551 202.220,240.616 203.158,240.696 201.885 C 240.776 200.612,240.775 198.632,240.694 197.485 C 240.614 196.338,240.549 197.380,240.550 199.800 M198.378 220.300 L 197.000 221.800 198.500 220.422 C 199.896 219.138,200.184 218.800,199.878 218.800 C 199.812 218.800,199.137 219.475,198.378 220.300 M157.785 221.300 L 155.800 223.400 157.900 221.415 C 159.055 220.323,160.000 219.378,160.000 219.315 C 160.000 219.017,159.629 219.349,157.785 221.300 M192.185 226.900 L 190.200 229.000 192.300 227.015 C 193.455 225.923,194.400 224.978,194.400 224.915 C 194.400 224.617,194.029 224.949,192.185 226.900 M149.578 229.900 L 148.200 231.400 149.700 230.022 C 151.096 228.738,151.384 228.400,151.078 228.400 C 151.012 228.400,150.337 229.075,149.578 229.900 M178.378 241.500 L 177.000 243.000 178.500 241.622 C 179.896 240.338,180.184 240.000,179.878 240.000 C 179.812 240.000,179.137 240.675,178.378 241.500 M135.785 244.500 L 133.800 246.600 135.900 244.615 C 137.055 243.523,138.000 242.578,138.000 242.515 C 138.000 242.217,137.629 242.549,135.785 244.500 M144.920 274.298 C 146.855 274.372,149.915 274.371,151.720 274.297 C 153.524 274.223,151.940 274.163,148.200 274.164 C 144.460 274.164,142.984 274.225,144.920 274.298 " stroke="none" fill="#30486a" fill-rule="evenodd"></path><path id="path4" d="M155.270 125.100 C 163.339 125.160,176.659 125.160,184.870 125.100 C 193.082 125.039,186.480 124.990,170.200 124.990 C 153.920 124.990,147.202 125.039,155.270 125.100 M248.000 147.400 C 249.417 148.830,250.667 150.000,250.777 150.000 C 250.887 150.000,249.817 148.830,248.400 147.400 C 246.983 145.970,245.733 144.800,245.623 144.800 C 245.513 144.800,246.583 145.970,248.000 147.400 M130.432 149.217 C 130.414 149.556,131.255 150.636,132.300 151.617 L 134.200 153.400 132.548 151.600 C 131.639 150.610,130.799 149.530,130.680 149.200 C 130.491 148.678,130.459 148.680,130.432 149.217 M139.183 158.900 C 140.841 160.666,141.200 160.984,141.200 160.683 C 141.200 160.619,140.345 159.764,139.300 158.783 L 137.400 157.000 139.183 158.900 M181.400 161.200 C 182.259 162.080,183.052 162.800,183.162 162.800 C 183.272 162.800,182.659 162.080,181.800 161.200 C 180.941 160.320,180.148 159.600,180.038 159.600 C 179.928 159.600,180.541 160.320,181.400 161.200 M144.800 164.925 C 144.800 164.994,145.385 165.579,146.100 166.225 L 147.400 167.400 146.225 166.100 C 145.130 164.888,144.800 164.616,144.800 164.925 M226.383 166.900 C 227.364 167.945,228.219 168.800,228.283 168.800 C 228.584 168.800,228.266 168.441,226.500 166.783 L 224.600 165.000 226.383 166.900 M188.600 168.800 C 189.683 169.900,190.660 170.800,190.770 170.800 C 190.880 170.800,190.083 169.900,189.000 168.800 C 187.917 167.700,186.940 166.800,186.830 166.800 C 186.720 166.800,187.517 167.700,188.600 168.800 M196.200 176.800 C 197.283 177.900,198.260 178.800,198.370 178.800 C 198.480 178.800,197.683 177.900,196.600 176.800 C 195.517 175.700,194.540 174.800,194.430 174.800 C 194.320 174.800,195.117 175.700,196.200 176.800 M160.200 181.200 C 161.728 182.740,163.069 184.000,163.179 184.000 C 163.289 184.000,162.128 182.740,160.600 181.200 C 159.072 179.660,157.731 178.400,157.621 178.400 C 157.511 178.400,158.672 179.660,160.200 181.200 M201.583 182.500 C 203.241 184.266,203.600 184.584,203.600 184.283 C 203.600 184.219,202.745 183.364,201.700 182.383 L 199.800 180.600 201.583 182.500 M167.400 188.800 C 168.259 189.680,169.052 190.400,169.162 190.400 C 169.272 190.400,168.659 189.680,167.800 188.800 C 166.941 187.920,166.148 187.200,166.038 187.200 C 165.928 187.200,166.541 187.920,167.400 188.800 M207.700 189.031 C 208.326 189.775,208.400 190.920,208.400 199.800 C 208.400 208.680,208.326 209.825,207.700 210.569 C 207.001 211.399,207.001 211.399,207.900 210.638 C 208.789 209.885,208.800 209.757,208.800 199.800 C 208.800 189.843,208.789 189.715,207.900 188.962 C 207.001 188.201,207.001 188.201,207.700 189.031 M269.293 193.200 C 269.293 193.970,269.375 194.285,269.476 193.900 C 269.576 193.515,269.576 192.885,269.476 192.500 C 269.375 192.115,269.293 192.430,269.293 193.200 M175.578 202.300 L 174.200 203.800 175.700 202.422 C 176.525 201.663,177.200 200.988,177.200 200.922 C 177.200 200.616,176.862 200.904,175.578 202.300 M269.293 206.400 C 269.293 207.170,269.375 207.485,269.476 207.100 C 269.576 206.715,269.576 206.085,269.476 205.700 C 269.375 205.315,269.293 205.630,269.293 206.400 M167.781 210.500 L 166.200 212.200 167.900 210.619 C 169.481 209.148,169.784 208.800,169.481 208.800 C 169.416 208.800,168.651 209.565,167.781 210.500 M201.600 217.000 C 200.628 217.990,199.923 218.800,200.033 218.800 C 200.143 218.800,201.028 217.990,202.000 217.000 C 202.972 216.010,203.677 215.200,203.567 215.200 C 203.457 215.200,202.572 216.010,201.600 217.000 M160.189 218.500 L 157.400 221.400 160.300 218.611 C 162.994 216.020,163.383 215.600,163.089 215.600 C 163.028 215.600,161.723 216.905,160.189 218.500 M196.000 223.000 C 195.028 223.990,194.323 224.800,194.433 224.800 C 194.543 224.800,195.428 223.990,196.400 223.000 C 197.372 222.010,198.077 221.200,197.967 221.200 C 197.857 221.200,196.972 222.010,196.000 223.000 M188.585 230.900 L 186.600 233.000 188.700 231.015 C 189.855 229.923,190.800 228.978,190.800 228.915 C 190.800 228.617,190.429 228.949,188.585 230.900 M226.400 232.600 C 225.428 233.590,224.723 234.400,224.833 234.400 C 224.943 234.400,225.828 233.590,226.800 232.600 C 227.772 231.610,228.477 230.800,228.367 230.800 C 228.257 230.800,227.372 231.610,226.400 232.600 M146.400 233.000 C 145.428 233.990,144.723 234.800,144.833 234.800 C 144.943 234.800,145.828 233.990,146.800 233.000 C 147.772 232.010,148.477 231.200,148.367 231.200 C 148.257 231.200,147.372 232.010,146.400 233.000 M181.600 238.200 C 180.628 239.190,179.923 240.000,180.033 240.000 C 180.143 240.000,181.028 239.190,182.000 238.200 C 182.972 237.210,183.677 236.400,183.567 236.400 C 183.457 236.400,182.572 237.210,181.600 238.200 M139.186 240.700 L 137.000 243.000 139.300 240.814 C 141.437 238.782,141.783 238.400,141.486 238.400 C 141.424 238.400,140.389 239.435,139.186 240.700 M132.037 248.162 C 131.076 249.141,130.403 250.163,130.522 250.462 C 130.691 250.884,130.744 250.874,130.768 250.415 C 130.786 250.093,131.557 249.058,132.483 248.115 C 133.409 247.172,134.077 246.400,133.967 246.400 C 133.857 246.400,132.988 247.193,132.037 248.162 M248.189 252.100 L 245.400 255.000 248.300 252.211 C 250.994 249.620,251.383 249.200,251.089 249.200 C 251.028 249.200,249.723 250.505,248.189 252.100 M155.270 274.700 C 163.339 274.760,176.659 274.760,184.870 274.700 C 193.082 274.639,186.480 274.590,170.200 274.590 C 153.920 274.590,147.202 274.639,155.270 274.700 " stroke="none" fill="#28325c" fill-rule="evenodd"></path></g></svg>